<svg xmlns="http://www.w3.org/2000/svg" version="1.1" xmlns:xlink="http://www.w3.org/1999/xlink" xmlns:svgjs="http://svgjs.com/svgjs" width="512" height="512" x="0" y="0" viewBox="0 0 24 24" style="enable-background:new 0 0 512 512" xml:space="preserve" class=""><g><path d="M2 15.162c0 1.145.998 1.993 2.092 2.007L6 17.195c1.786 1.32 3.573 2.648 5.36 3.965 1.05.716 2.64.037 2.64-1.309V4.283c0-1.644-1.548-2.202-2.64-1.307L5.992 7.068l-1.895.012c-1.095.007-2.097.854-2.097 2.001zM16.293 9.361a1 1 0 0 0 0 1.414l1.293 1.293-1.293 1.291a1 1 0 0 0 1.414 1.414L19 13.48l1.293 1.293a1 1 0 0 0 1.414-1.414l-1.293-1.291 1.293-1.293a1 1 0 0 0 0-1.414c-.455-.455-1.053-.361-1.414 0L19 10.654 17.707 9.36c-.44-.44-1.026-.388-1.414 0z" fill="#ffffff" data-original="#000000" class="" opacity="1"></path></g></svg>