<svg xmlns="http://www.w3.org/2000/svg" version="1.1" xmlns:xlink="http://www.w3.org/1999/xlink" width="512" height="512" x="0" y="0" viewBox="0 0 32 32" style="enable-background:new 0 0 512 512" xml:space="preserve" class=""><g><g data-name="39-Replay"><path d="M16 2a13.9 13.9 0 0 0-9 3.32V3a1 1 0 0 0-2 0v5a1 1 0 0 0 1 1h5a1 1 0 0 0 0-2H8.11A11.87 11.87 0 0 1 16 4a12 12 0 1 1-11.67 9.23 1 1 0 1 0-1.94-.46A13.72 13.72 0 0 0 2 16 14 14 0 1 0 16 2z" fill="#ffffff" opacity="1" data-original="#000000" class=""></path><path d="M14 21.2a2 2 0 0 0 1.06-.31l5.11-3.19a2 2 0 0 0 0-3.4l-5.11-3.19A2 2 0 0 0 12 12.8v6.4a2 2 0 0 0 2 2zm0-8.4 5.11 3.2L14 19.2z" fill="#ffffff" opacity="1" data-original="#000000" class=""></path></g></g></svg>