<svg xmlns="http://www.w3.org/2000/svg" version="1.1" xmlns:xlink="http://www.w3.org/1999/xlink" xmlns:svgjs="http://svgjs.com/svgjs" width="512" height="512" x="0" y="0" viewBox="0 0 24 24" style="enable-background:new 0 0 512 512" xml:space="preserve" class=""><g><path d="M12 1.25a11.133 11.133 0 0 0-1.53.11.761.761 0 0 0-.64.85.762.762 0 0 0 .75.64.34.34 0 0 0 .1-.01A9.759 9.759 0 0 1 12 2.75a.75.75 0 0 0 0-1.5zM8.39 2.64a.75.75 0 0 0-1-.36 11.019 11.019 0 0 0-1.83 1.11.75.75 0 0 0-.15 1.05.726.726 0 0 0 .6.3.76.76 0 0 0 .45-.15 8.717 8.717 0 0 1 1.58-.95.752.752 0 0 0 .35-1zM4.35 5.51a.763.763 0 0 0-1.05.17 11.45 11.45 0 0 0-1.08 1.85.757.757 0 0 0 .37 1 .87.87 0 0 0 .31.07.745.745 0 0 0 .68-.44 9.189 9.189 0 0 1 .94-1.6.763.763 0 0 0-.17-1.05zm-1.52 5.3a.751.751 0 0 0-1.49-.19A10.544 10.544 0 0 0 1.25 12c0 .26.01.51.03.77a.736.736 0 0 0 .74.69h.06a.749.749 0 0 0 .69-.8c-.01-.22-.02-.44-.02-.66a9.388 9.388 0 0 1 .08-1.19zM4.22 17a8.757 8.757 0 0 1-.84-1.64.75.75 0 0 0-1.4.54 10.434 10.434 0 0 0 .98 1.91.751.751 0 0 0 .63.35.721.721 0 0 0 .4-.12.758.758 0 0 0 .23-1.04zm3.35 3.12a10.048 10.048 0 0 1-1.53-1.04.745.745 0 0 0-.96 1.14 10.9 10.9 0 0 0 1.77 1.22.745.745 0 0 0 1.01-.3.753.753 0 0 0-.29-1.02zM12 21.25a9.409 9.409 0 0 1-1.84-.18.749.749 0 1 0-.29 1.47 10.76 10.76 0 0 0 2.13.21.75.75 0 0 0 0-1.5zM15.8 10.576l-4.283-3.057A1.75 1.75 0 0 0 8.75 8.943v6.114a1.742 1.742 0 0 0 .95 1.556 1.744 1.744 0 0 0 1.818-.132l4.282-3.057a1.75 1.75 0 0 0 0-2.848z" fill="#ffffff" data-original="#000000" opacity="1" class=""></path><path d="M12 22.75a.75.75 0 0 1 0-1.5 9.25 9.25 0 0 0 0-18.5.75.75 0 0 1 0-1.5 10.75 10.75 0 0 1 0 21.5z" fill="#ffffff" data-original="#000000" opacity="1" class=""></path></g></svg>