<svg xmlns="http://www.w3.org/2000/svg" version="1.1" xmlns:xlink="http://www.w3.org/1999/xlink" xmlns:svgjs="http://svgjs.com/svgjs" width="512" height="512" x="0" y="0" viewBox="0 0 48 48" style="enable-background:new 0 0 512 512" xml:space="preserve" class=""><g><path fill="#ffffff" fill-rule="nonzero" d="M25.035 6.113C26.958 4.446 30 5.788 30 8.38v31.24c0 2.382-2.778 4.033-4.965 2.267L13.627 32 9 32c-1.539 0-3-1.256-3-3V19c0-1.598 1.303-3 3-3l4.628-.001zM38 19c.513 0 1 .446 1 1v3h3a1 1 0 0 1 1 1c0 .513-.433 1-1 1h-3v3a1 1 0 0 1-1 1c-.513 0-1-.446-1-1v-3h-3a1 1 0 0 1-1-1c0-.513.422-1 1-1h3v-3a1 1 0 0 1 1-1z" data-original="#000000" opacity="1" class=""></path></g></svg>