<svg xmlns="http://www.w3.org/2000/svg" version="1.1" xmlns:xlink="http://www.w3.org/1999/xlink" xmlns:svgjs="http://svgjs.com/svgjs" width="512" height="512" x="0" y="0" viewBox="0 0 100 100" style="enable-background:new 0 0 512 512" xml:space="preserve" fill-rule="evenodd" class=""><g><path d="M90.734 21.888a9.376 9.376 0 0 0-9.375-9.375h-62.81a9.374 9.374 0 0 0-9.375 9.375v56.148a9.376 9.376 0 0 0 9.375 9.375h62.81a9.378 9.378 0 0 0 9.375-9.375V21.888zm-6.25 0v56.148a3.126 3.126 0 0 1-3.125 3.125h-62.81a3.126 3.126 0 0 1-3.125-3.125V21.888a3.125 3.125 0 0 1 3.125-3.125h62.81a3.125 3.125 0 0 1 3.125 3.125z" fill="#ffffff" data-original="#000000" opacity="1"></path><path d="M45.313 24.854H31.104a9.376 9.376 0 0 0-9.375 9.375v14.209a3.125 3.125 0 0 0 6.25 0V34.229a3.126 3.126 0 0 1 3.125-3.125h14.208a3.126 3.126 0 0 0 .001-6.25zM54.542 75H68.75a9.376 9.376 0 0 0 9.375-9.375V51.417a3.126 3.126 0 0 0-6.25 0v14.208a3.125 3.125 0 0 1-3.125 3.125H54.542a3.126 3.126 0 0 0 0 6.25z" fill="#ffffff" data-original="#000000" opacity="1"></path></g></svg>