<svg xmlns="http://www.w3.org/2000/svg" version="1.1" xmlns:xlink="http://www.w3.org/1999/xlink" xmlns:svgjs="http://svgjs.com/svgjs" width="512" height="512" x="0" y="0" viewBox="0 0 25 25" style="enable-background:new 0 0 512 512" xml:space="preserve" class=""><g><path d="M23 3.5v18a1.5 1.5 0 0 1-1.5 1.5h-1a1.5 1.5 0 0 1-1.5-1.5v-18A1.5 1.5 0 0 1 20.5 2h1A1.5 1.5 0 0 1 23 3.5zm-6.85 7.38L5.24 2.5a2 2 0 0 0-2.06-.21 2 2 0 0 0-1.13 1.83v16.76a2 2 0 0 0 3.19 1.62l10.91-8.37a2.05 2.05 0 0 0 0-3.25z" data-name="Layer 6" fill="#ffffff" data-original="#000000" opacity="1" class=""></path></g></svg>