<svg xmlns="http://www.w3.org/2000/svg" version="1.1" xmlns:xlink="http://www.w3.org/1999/xlink" xmlns:svgjs="http://svgjs.com/svgjs" width="512" height="512" x="0" y="0" viewBox="0 0 32 32" style="enable-background:new 0 0 512 512" xml:space="preserve" class=""><g><path d="M14 5v22a3 3 0 0 1-3 3H8a3 3 0 0 1-3-3V5a3 3 0 0 1 3-3h3a3 3 0 0 1 3 3zm10-3h-3a3 3 0 0 0-3 3v22a3 3 0 0 0 3 3h3a3 3 0 0 0 3-3V5a3 3 0 0 0-3-3z" data-name="Layer 33" fill="#ffffff" data-original="#000000" class="" opacity="1"></path></g></svg>