<svg xmlns="http://www.w3.org/2000/svg" version="1.1" xmlns:xlink="http://www.w3.org/1999/xlink" xmlns:svgjs="http://svgjs.com/svgjs" width="512" height="512" x="0" y="0" viewBox="0 0 32 32" style="enable-background:new 0 0 512 512" xml:space="preserve" class=""><g><g data-name="10-Volume-down"><path d="M29 15h-6a1 1 0 0 0 0 2h6a1 1 0 0 0 0-2zM17.5 4a2.53 2.53 0 0 0-1.5.5L8.67 10H5a3 3 0 0 0-3 3v6a3 3 0 0 0 3 3h3.67L16 27.5a2.53 2.53 0 0 0 1.5.5 2.5 2.5 0 0 0 2.5-2.5v-19A2.5 2.5 0 0 0 17.5 4z" fill="#ffffff" data-original="#000000" opacity="1" class=""></path></g></g></svg>